<?xml version="1.0" standalone="no"?><!DOCTYPE svg PUBLIC "-//W3C//DTD SVG 1.1//EN" "http://www.w3.org/Graphics/SVG/1.1/DTD/svg11.dtd"><svg t="1709798534792" class="icon" viewBox="0 0 1024 1024" version="1.1" xmlns="http://www.w3.org/2000/svg" p-id="6059" xmlns:xlink="http://www.w3.org/1999/xlink" width="200" height="200"><path d="M919.3 551.7H757.4c-22.4 0-40.7-18.2-40.7-40.6s18.3-40.6 40.7-40.6h161.9c22.4 0 40.7 18.2 40.7 40.6s-18.3 40.6-40.7 40.6zM902.4 180.6L788 294.8c-15.8 15.8-41.7 15.8-57.6 0-15.9-15.8-15.8-41.6 0-57.4l114.4-114.2c15.8-15.8 41.7-15.8 57.6 0s15.9 41.6 0 57.4zM732.2 731.4c15.8-15.8 41.7-15.8 57.6 0l114.4 114.2c15.8 15.8 15.8 41.6 0 57.4-15.8 15.8-41.7 15.8-57.6 0L732.2 788.8c-15.9-15.8-15.9-41.6 0-57.4zM608.2 112c-4.6 0-9.4 1.2-13.8 3.9L232 344.5H116.5c-28.9 0-52.5 23.6-52.5 52.4v230.3c0 28.8 23.6 52.4 52.5 52.4H232l362.5 228.5c4.4 2.7 9.1 3.9 13.7 3.9 13.7 0 26.3-10.8 26.3-26.2V138.2c0-15.4-12.6-26.2-26.3-26.2zM195.4 598.6c0 8.8-7.2 16-16 16h-40.3c-8.8 0-16-7.2-16-16v-164c0-8.8 7.2-16 16-16h40.3c8.8 0 16 7.2 16 16v164z m368.7 145.3c0 27.5-30.3 44.3-53.7 29.9L279 619.8l-0.4-0.2c-10.6-6.3-17.2-17.8-17.2-30.2V434.7c0-12.4 6.5-23.8 17.2-30.1l0.4-0.3 231.4-154c23.5-14.4 53.7 2.4 53.7 29.9v463.7z" p-id="6060"></path></svg>