<?xml version="1.0" standalone="no"?><!DOCTYPE svg PUBLIC "-//W3C//DTD SVG 1.1//EN" "http://www.w3.org/Graphics/SVG/1.1/DTD/svg11.dtd"><svg t="1709631150239" class="icon" viewBox="0 0 1024 1024" version="1.1" xmlns="http://www.w3.org/2000/svg" p-id="5077" data-darkreader-inline-fill="" xmlns:xlink="http://www.w3.org/1999/xlink" width="200" height="200"><path d="M86.187 768a170.667 170.667 0 0 1 259.242-145.75l277.59-277.333a170.667 170.667 0 1 1 59.178 58.24c-19.669 19.158-87.082 85.675-278.186 278.486a170.667 170.667 0 1 1-317.824 86.314z m85.333 0a85.333 85.333 0 1 0 85.333-85.333A85.333 85.333 0 0 0 171.35 768z m512-512a85.333 85.333 0 1 0 85.333-85.333A85.333 85.333 0 0 0 683.435 256z" p-id="5078"></path></svg>