<?xml version="1.0" standalone="no"?><!DOCTYPE svg PUBLIC "-//W3C//DTD SVG 1.1//EN" "http://www.w3.org/Graphics/SVG/1.1/DTD/svg11.dtd">
<svg t="1709628556824" class="icon" viewBox="0 0 1024 1024" version="1.1"
  xmlns="http://www.w3.org/2000/svg" p-id="1619"
  xmlns:xlink="http://www.w3.org/1999/xlink" width="200" height="200">
  <path d="M936.590719 758.500137 98.147856 758.500137c-15.434527 0-27.944446-12.464893-27.944446-27.841092 0-15.380292 0-5.222955 0-27.849278 0-236.655931 185.340195-431.087179 419.215804-445.527053-0.179079 2.290159 0-55.692417 0-55.692417l-55.897078 0c-15.433504 0-27.946492-12.470009-27.946492-27.840068 0-15.383362 12.512988-27.850301 27.946492-27.850301l167.689187 0c15.436574 0 27.949562 12.466939 27.949562 27.850301 0 15.370059-12.514012 27.840068-27.949562 27.840068l-55.892985 0 0 55.692417c233.875608 14.442944 419.22092 208.871121 419.22092 445.527053 0 24.367991 0 12.468986 0 27.849278C964.538235 746.035244 952.025247 758.500137 936.590719 758.500137zM517.370823 312.975131c-216.09771 0-391.272381 174.535105-391.272381 389.834636l782.542716 0C908.641157 487.510236 733.464439 312.975131 517.370823 312.975131zM98.147856 814.196647l838.442864 0c15.434527 0 27.948539 12.467963 27.948539 27.841092 0 15.381315-12.514012 27.848255-27.948539 27.848255L98.147856 869.885993c-15.434527 0-27.944446-12.466939-27.944446-27.848255C70.202387 826.663586 82.713328 814.196647 98.147856 814.196647z" p-id="1620"></path>
</svg>