<?xml version="1.0" standalone="no"?><!DOCTYPE svg PUBLIC "-//W3C//DTD SVG 1.1//EN" "http://www.w3.org/Graphics/SVG/1.1/DTD/svg11.dtd">
<svg t="1709779957385" class="icon" viewBox="0 0 1024 1024" version="1.1"
  xmlns="http://www.w3.org/2000/svg" p-id="9535"
  xmlns:xlink="http://www.w3.org/1999/xlink" width="200" height="200">
  <path d="M422.4 0c233.301333 0 422.4 189.098667 422.4 422.4 0 93.568-30.421333 180.053333-81.92 250.026667l242.346667 242.346666a64 64 0 0 1-85.632 94.890667l-4.864-4.394667-242.304-242.346666A420.522667 420.522667 0 0 1 422.4 844.8C189.098667 844.8 0 655.701333 0 422.4S189.098667 0 422.4 0z m0 128a294.4 294.4 0 1 0 0 588.8A294.4 294.4 0 0 0 422.4 128z" p-id="9536"></path>
</svg>