<?xml version="1.0" standalone="no"?><!DOCTYPE svg PUBLIC "-//W3C//DTD SVG 1.1//EN" "http://www.w3.org/Graphics/SVG/1.1/DTD/svg11.dtd"><svg t="1709798567750" class="icon" viewBox="0 0 1024 1024" version="1.1" xmlns="http://www.w3.org/2000/svg" p-id="7196" xmlns:xlink="http://www.w3.org/1999/xlink" width="200" height="200"><path d="M257 277H104a42 42 0 0 0-42 42v605a42 42 0 0 0 42 42h153a42 42 0 0 0 42-42V319a42 42 0 0 0-42-42z m-6.5 96a32 32 0 0 1-32 32h-76a32 32 0 0 1-32-32 32 32 0 0 1 32-32h76a32 32 0 0 1 32 32zM559 115H406a42 42 0 0 0-42 42v767a42 42 0 0 0 42 42h153a42 42 0 0 0 42-42V157a42 42 0 0 0-42-42z m-6 96a32 32 0 0 1-32 32h-76a32 32 0 0 1-32-32 32 32 0 0 1 32-32h76a32 32 0 0 1 32 32z m418.35 683.88l-97.51-615.32a42 42 0 0 0-48.06-34.91l-142.22 22.54a42 42 0 0 0-34.91 48.06l97.51 615.32a42 42 0 0 0 48.06 34.91l142.22-22.54a42 42 0 0 0 34.91-48.06zM812.24 376.4l-75.07 11.89a32 32 0 0 1-36.61-26.6 32 32 0 0 1 26.6-36.61l75.06-11.9a32 32 0 0 1 36.61 26.6 32 32 0 0 1-26.59 36.62z" p-id="7197"></path></svg>