<?xml version="1.0" standalone="no"?><!DOCTYPE svg PUBLIC "-//W3C//DTD SVG 1.1//EN" "http://www.w3.org/Graphics/SVG/1.1/DTD/svg11.dtd">
<svg t="1709824543469" class="icon" viewBox="0 0 1024 1024" version="1.1"
  xmlns="http://www.w3.org/2000/svg" p-id="11778" data-darkreader-inline-fill=""
  xmlns:xlink="http://www.w3.org/1999/xlink" width="200" height="200">
  <path d="M960 512c0-247.4-200.6-448-448-448s-448 200.6-448 448 200.6 448 448 448 448-200.6 448-448z m-408 365.8V808c0-22.1-17.9-40-40-40s-40 17.9-40 40v69.8C300.7 859.3 164.7 723.3 146.2 552h69.8c22.1 0 40-17.9 40-40s-17.9-40-40-40h-69.8C164.7 300.7 300.7 164.7 472 146.2V216c0 22.1 17.9 40 40 40s40-17.9 40-40v-69.8C723.3 164.7 859.3 300.7 877.8 472H808c-22.1 0-40 17.9-40 40s17.9 40 40 40h69.8C859.3 723.3 723.3 859.3 552 877.8z" p-id="11779"></path>
  <path d="M512 384c-70.7 0-128 57.3-128 128s57.3 128 128 128 128-57.3 128-128-57.3-128-128-128z m0 176c-26.5 0-48-21.5-48-48s21.5-48 48-48 48 21.5 48 48-21.5 48-48 48z" p-id="11780"></path>
</svg>