<svg t="1718864019391" class="icon" viewBox="0 0 1024 1024" version="1.1"
  xmlns="http://www.w3.org/2000/svg" p-id="9231" data-darkreader-inline-fill="" width="200" height="200">
  <path d="M376.746667 853.333333a128.042667 128.042667 0 1 1 0-85.333333h369.92a106.666667 106.666667 0 1 0 0-213.333333h-469.333334a192 192 0 1 1 0-384h131.669334L353.834667 115.498667l60.330666-60.330667L572.330667 213.333333 414.165333 371.498667 353.834667 311.168 409.002667 256H277.333333a106.666667 106.666667 0 0 0 0 213.333333h469.333334a192 192 0 1 1 0 384H376.746667zM256 768a42.666667 42.666667 0 1 0 0 85.333333 42.666667 42.666667 0 0 0 0-85.333333zM768 85.333333a128 128 0 1 1 0 256 128 128 0 0 1 0-256z m0 85.333334a42.666667 42.666667 0 1 0 0 85.333333 42.666667 42.666667 0 0 0 0-85.333333z" p-id="9232"></path>
</svg>